<mxfile host="app.diagrams.net" modified="2023-12-29T03:04:36.843Z" agent="Mozilla/5.0 (Windows NT 10.0; Win64; x64) AppleWebKit/537.36 (KHTML, like Gecko) Chrome/120.0.0.0 Safari/537.36 Edg/120.0.0.0" etag="lqGvoohpCTeiMX97naBW" version="22.1.15" type="github">
  <diagram name="第 1 页" id="2RMa19j09gdtHGvyGafK">
    <mxGraphModel dx="1678" dy="893" grid="1" gridSize="10" guides="1" tooltips="1" connect="1" arrows="1" fold="1" page="1" pageScale="1" pageWidth="1169" pageHeight="827" math="1" shadow="0">
      <root>
        <mxCell id="0" />
        <mxCell id="1" parent="0" />
        <mxCell id="YCPGuai8Zoc8Pll9OkgD-10" style="edgeStyle=orthogonalEdgeStyle;rounded=0;orthogonalLoop=1;jettySize=auto;html=1;exitX=1;exitY=0.5;exitDx=0;exitDy=0;entryX=0;entryY=0.5;entryDx=0;entryDy=0;" edge="1" parent="1" source="YCPGuai8Zoc8Pll9OkgD-1" target="YCPGuai8Zoc8Pll9OkgD-5">
          <mxGeometry relative="1" as="geometry" />
        </mxCell>
        <mxCell id="YCPGuai8Zoc8Pll9OkgD-1" value="Images" style="shape=image;verticalLabelPosition=top;labelBackgroundColor=default;verticalAlign=bottom;aspect=fixed;imageAspect=0;image=data:image/png,iVBORw0KGgoAAAANSUhEUgAAAFoAAACpCAYAAAHcqRojAAAAAXNSR0IArs4c6QAAAARnQU1BAACxjwv8YQUAAAAJcEhZcwAAFxEAABcRAcom8z8AAF7BSURBVHhe7b3XsiRLlh3W/8EH8k/AT8E/4JVmg0fCQAyMg7nTfefKEkdlntRaa621VkdW3e47ADk0kkUjubHW9ojMPKqqrpgWsA4zt8iMCPfYvvb2Ldw93H/zqx7L+WTB83a9vNcLLx1XV1eyWi2E581mqefZdCLW7YfHdrv8sNksZIsH7fN6PZflYvYwg5a2NqXZ5+1mpb/XeNt8Pj1kWC5nstttZbmc44EVyJnrw1co/fZqLStcn82OSFosprLdbmSxnMgCr2YBm/VMirm4nJ+9kcFohDeMH2bgGxZ4LV+9QobfXrqlmApIt1OUc7frIUn8Mx4NZYkzX321nkoWpc9GLVnNBhLwX8h8MT/OMJHpZCQ9pNl0JImIS1bDitSqJYmkEtKuF0Dq8igDSl2vljIa5vXVnVJMpqOOdOpF+fbbr2QIstbLxSFDoRgF3QupJQOox0SGzZL0GgW53s6klIvIsF3R+9bjv/lN0O+QLeCsZiMK62LUlHQ8LO+vxrJa9GXUqYJ5R4yr1XKyA4OayDAHrONeU7qtgnj9YdlMu3hDGSQfZYgkQioCvXYeN+YSDgekjodqhbTM+nVJJvjmo0pn0iElJRFyyRoMTEVD0gas60lH+q2S7FREjupwd3cli9lULi6d+iZP0C+DbkOm/Zokkz4tfQPmWo//5je77RqwzeXu9lo224VUiklJZRMyBE/eXW1UlqxHzbGlGEM0KPv8vdms5f7deyC3hsjsstZjh2ONV1KWeNbXg2Y8+LDU4+P+/v5/gLQ2+Jstjf/1xp/PwebJhHps+N8+PzlWq+WHJeR+C5gp7le79Wg6HTysvGnsRqXYZ8I7n8+0BdoP/Q1ZvQPebOzbrdEOLJkqhe1am+R2u72nZtjuwD2IK0szGgLaYbeE/C/Nw9QQbOj8o1rBOq+Roo2aNCFov/36NbSFadPayO3XbFEyf99dr+XC45FcISrBaFi6g6EhYzody/12rq9xRIJ6Mep3ymrSkEm/JffznpTzES0ED0+gjAL6kCcURa3HUsyEpBa6hOi2ZYnW5Ly8VMWFh2fSLidlg8bbbhZkDFw3aKvTLho4/udKaUlcfm+ULAmPRrxoXh15vxpICDTeroaSjvmllYtKo5yWTCIM1Qg5XywWMkADrhfR7PBKXygADRCSXq8h41ZZBlBKbx2XRgss8PpCNiCxuFe6tbQ4PH4JXp7Kbj6SZjUnIzRowqstaAHNVUm6ZdjNywiK6M3pqdxuxni4L816VUa9OpohtTJaP1tKMxfDa5vSrBXE5/fIatqBbinif14iYZAHju7Y8iFh8g10+PXNVvwuhzTyGZmO29IqJWUw6MjdDRvxTAXrN+sNWvr9NYRmiQdSsBYbyRVzkkwHpVFIqiagvKjE8WFKl93id8h0i7e8e3/9tAHTSJFuO2lLR3q28dqveHz+0x13d3f//a9KBQr7G4D0z/P5XCaToVxfXyuy08n4wwz/rWdkMR180AyfOqhioEbvqT6pFckBJioK/p9CYbNAygObP9vdDG3Qyv704MNUR7YS0f+QByqWHZO+YKuywpfQfyGXtXC0U23lxwcLWC6X96SGhSo1OFM7UfmwMDU31n31b9SAWeKC69QGM9ivB4XzIhMVESk1/40XxZeRImo4mlR98W4h735/LV/50nIeK8juegO1iefhBbDgB74RL9gv2G3gI1m/2WzNven+Bbu7jeqyIgx+H/ogBu8gABteSMA8A3di/oByvokXVihkBCfL9qdub7f7wld4WaBUk0TUJaViQsrwTcadChpxHfrEIfF4UAKZBJ6l83ZU+Hw6RFXGkqzAkcFNenC3MOH5wIVe5ws6w5Ek3W/FEfZJMeqDosrC+6hDDDvQOVVpwklKpKBwST2et4oG5SjsCvpl3EopFKxJKB6AB5WDqE0Uz1Y9JdEwHDu4YYGgT2rwDif9JjRLQr5+/Upa5ZQ4/W7ZovC9HeMxBYcrlRxwjKsLs15NJZ2OSh+Fz2YzqWZSUK0x2IoeYOvAhfPJ7d21NKoJGQzrEkGNZoO6+LxwGi0BsIqGyQWe/ogPqrUDvObSG7TgTaalAk3Ph7PpuDQLCXiaWbmdQ1Hm4SeitnfroYy6Vbh9LZlAHZ+cnEB0SdwDt3Uu2Qy8tVEbftYMOj0gywkydCvAbw6L4ZNRqyJZuFHRoFN+fw+5nvWkWi5IE37YctyRFExPIgVYUfAD92oJnPKA5PXZW1RpBtcwI7FEXGrFFOzTVFrtqhQyEWmUcuKPx2U6gCmd9mUIT3ADp6LbyEswEtHGpvoYySoajQiFR2H86rCObCTVYkYy6TAsUgOu5Ur8kONuPYvq9yRdKUmnC/M16UowHJYG7F61ksez8OZRqGm9R4WrXhj3QW1Ub96gwHIhLD0UyBYb9Z7C2MekXS3jBYBuAS8BzxcBXzibggOcBbXEGqYGdnV3jDntEBSVVOFuMyRggW0wNZ2BIwwGbXDvlccplXwCtcpLAw2o3ShLq5WHP1CDXoFGnINAtBHqpAcmiT4vtR213tUVNB41H15AR5r3GDbdQ/Q6tTwYF8BL4jJpVeUehnALV4wFWkU9PeivqWZTf40ZcFatt7YwtDQg7m2ge9ZIHy3w+CAjaGmZAYU3+JsqFv+/21thFP7ZBb50PDbhMAxPvfy/2OMxPDc3N39n/fx5Bwr8GxY6nxzcfP4/ftHjl37yYAYY4nvGEFO4D/y/WptYgr/pHSyXixHsb9XK8vGDGehOUIqoz2m+tFC0PJq/Kag3L1l9mOClcCs+XbBSuVl9sH0S/Y/GtELTpgHgf9t/mSG4mcGCbVarlwtmhqur9YiuJ9WAuhBIG3Up2HJNg2FDorzT+aGzS8/g2YJtP09bHyhjevAflGuBO7ZU+iVswQstWA02EmrzsGBDwXKhTR0P8z91iN3EbU/KfoneY7PXgk3nDvtD9gWjAHUelyv4IYg1TLPegUlwcrRQK0i09MsWZxaMKmvBa/w3bpoJ1pR5yDABZz+oc4OCWIBxbKhHzH+qU97jfxbMF6rbDxXLniXizvxKMTwCu2C9yGTHkPobjDD36EEZj4oKfrdeyw+3a8kNpvJ3F1HJ1Xvy7najzzA/XY1DwXgTLx4KNu4aq2u/hPdYMGPRf/+7b2EfY1IPeyTgP5dUMKrw8NkHBbMKzLgCxvob1PE/Fb79MlLMTrXfvX0rLfgrpXJGKrCf/XZJkgmvtHudfY+XMu8YiitgxYLVxyMUYKL5z5cuJN3uSCR4JrezDgK4txKJ+6WEmPfC7ZK3bxm+omBbKpRivIUF3MFJ14Jwk5HoYDhUinntBhD4L52gNoOQtyJJuAtVuGHeKCLtYVXy1SQIMIRpA7ELJs5vfWGtCm+S49OJuc6UqNSkVk5IuxiBd1SDn9eQDvyRq0Ubzk9J6vD7av2BVbujgtlRMKxF8XuEgifiS+fgbpmCGfEGvU5xn32PqD0rbTiOA3in405VGPLP4eu53r6SfBNu2XHB7HBdAd8QHHC6usS3knJZEE0Aw0aq8DcmnZL0UGgBwfCk15J6OQefrwsvtgx/2yPZHPxqbQN2wSggkkhKBTdmoJjcZ5eY7d2H0ykJIAKYdGvw+8A4j1syyZh0qmn5EqJXgnOZDjklV0iDkKOCl2iKVeBXQ2F0cVuNmuSjXm1l5HSr6JVsEgUP4WKh6hsUnk7BkannxOP4XiqZsKQTITwTUuj2BbODMV/IgyFVvHGGTDE0ALph1GALOIVZacBT6rfLEK+AzIZ9Obn0SDrilH4zI3k8P+kUpAQ3mJIB/WEK3qDgFjzPu1VfW1k2HZFY1K86YgFo6oDofgdGwkFPw9+eDgbwnysSigblajmAr5cDYUnplvLAGIrKLpiFFXBj1M7D+1+KK+yVa3J7uZRhr4KCYzKGiK2HDRmCYXxBD9HWzQLiRecR/nY06JFme2gU1WZjCh5AbOLw0WZwDpcLePqJoAy6ZZWWWi0tU0hDC3imMjGEGDEZdcoShSM+6UPkAN8U2KeSEVlqpEsLYxVMbGNJONx4gBjngOcIhc3ByLjvTLoIJW42U0nlk+JDbJJIJyWfAaMRv/jgEudiHgkGfAiEjMe/p3g2rkq3EpN5pygzCLjL5ZBhk53DCykhLBt0mzKFskmFHJKPheTUFZA3YN5yNhRvIIAGk5ZANIaGhMYEfu0xns9b4jh9K91mQRtKOQe5DVzKCLqi28tDpmPSLyPBQV8OIMvjthQREcwGCIioO2Z9yaVCEDNCQUfSongDzubAvBZU4QYW2enySAlxIe1ct52TCOFAHNKvpaSNuGTUa8qgWdFQopQKAxaEH1CxWihkf0/xGt55CgJfKYJiFJZJIxRGWMCHmsA3FETzHjQlBmzZjNP5vDg8XgmDYZt5T+FgD4KGEJAqEGQKvtptJHDxWhrFtKzx+wLyWcnFleIylE4MBU/7LdlNocwBQwdhRhfNOYVQIhL0SwfKh+afto9xCQJWU/AN9HAWsVwSATrDhgwUeABQsL93Bffp0uOQKao/HXR1pGIOphVQqyGgcVy65AbEaIAJidiiTewL3qCwQqkg3rAbDyxRQE/OL88gx1D+N1fi9fmkDPndrnpQQm0EPQnoYcTnfr92SzCS4sgGtSKlgu7DvuDbm42E4xG4Uwu5uduKA3LJfk92/TgQrMfRxOdU5sUcgs2kpLNJOQv4DbXAlpaGHSksz3ZWgKXxxRjIM2q6RoCzpqXWdk/sJpIpliSH+M8XDMgQAWU8m5cNakOHhYWynAehhinYuExXKNyEahu55v8r9iWtwAN6l1MwNCYRKKEaItrr2xt1WtB8D1QeH7xI14kxnw5lkLP4zbBMPUxmxn9Kzv27G7m9v4M9BAGfivdMwXTsVLD1TDFj2mn8p2oQNcFLUZPt1vThIf1bq4jnDxZs/DTjWJMRLIj/CYn9IuMc/oSYzy6YZ4Jvv4D/7aCSyb5vZfv0wQxM1l/EG/TcTTVZMMPd4/u/yvGrF/gXffziSPaPdUAuNmQdx96fYyGu/Ste/5Oz1yZ0vd6M2JHP6Jud+TZhOGvoj+c+LOfje3YBHBON6/+a/5nQAOrW5V//OLxkPUJgowE5HegpAm5G9uyM4n20Sg4ofKCryq4FjlTY3QtW+oBA/Z7XGKx/dvfC5xwofM9WRF0L02tgegdovkbDLgm07lPPG93ENJmM1c7uKwIlyOuMfDnmwJEPU5kB8/0yovECZSvSB3bCUI0bF4NamL+NXTCEmE4EJrsbhITbFeGZ142iNfc5dMM5EBzfsOOtj3aLvHTsG9J2+yMM2D2HbtiTYYji2ShdJQSWU++TUKDGijDt7yMANBU1idaXz9H0kPAlOKRRKP0BpH1Q8jmHTSjOQHP1QQ0mEjQAiDQ9JtZ9JXx/H78pCsh+IBT/iah22bCiVmVNHvZjkHCDNIN8EkzCGSfy/FGibULXm9VotZp/MPEGkaJVP7CVImC/6JDor5j7NqE2YVoREk0XxLpu3zM21/SV2ESTUA3NdZznGaLtl6w3S7Z4WTLUQOjNAliofZ8+DLs8zD3T08MXHxC3nFLrniHWIEnC7P9biMMVxIcBMufAcOKMEk6CKQ4WyiTa7lN40BD5Mj50nBgZap8L7pFw03OEyvC6FTvtEQeh5h6jbJMMajaRQBNlXINb7yAa//ndtfz+hzv54cf38ocfbuX93TWSaYx0lO2OJbsnhRqEcxieEM1o3X6QE6rYavmbbHxcGU3P3rMqhbPGbUq06Wz6w+1GWiDgb1/55KuvXsnFq+8k6rmQr777Ri7cHvnCn5bB1HisphyOC6JcyDORVqKP9bQizR4X++XWmS9nbxdra65ZFSOieu+YaNyjeuJ9JL0PlNlN1IYu/uLVqeQrSYmFPTLolaWAWKiYichlNITfPrmbpRFNhKWK+IdRiIonyuGYpS0iT5AmYQcC7BebLjreO77P6xQBqjj7OityyEc5X8oPEIPXgZB8cfKdnJ2fymZck3E1JadORNgpv5RC59LD/3YpKlmEmX6EQ3EEFf5YBGVYso3ybaIf6Gmb6ONE5G6uVjJFjMX/NtL8TQSud7BWy9WD51WXsqKQ3WvI6BtvQGLZmBQRBwdCPtkgYm8U4nLi8ci8U5B0zAPiw1LOR6WcDiE4R8zm9UjA/VqqrRreQw1iCH6WaF5k95b9AMPRcr+njYD/SZASh7RDLFftDWQ6NjN9eI3ixd/sjtwiNHNfnEkm5JJeMaLdkf1GVnqtggyaeRl3izJBID9q5OVm2RevxwUnqiGjelbq+Zh4I16JRgPSn6JtIbSbW2A9Q/RY5iCQMsRGeQPWOy9OZTkb6T2baPYyjiYT7WmcjuGxWZXlPfbesmPbAVRDEb84fX7xuyDL2ZCG0l2IwKTXkCHi+HG/jni+JttJS66XeO+wrWO/fueZBFNRyYH4bL0BWtilZ0TvgZ5WouFF8cXz2VTuoT8vAy5JpBJAAEjDByCbOPuJ03bCEY80Kwk8i5dp9ykrO5E76N6LSEzygXNpZANSKUclnwtJpVqQcjwobRA9aFdl2K3JoFvX7qtWNSebYV3Ww6YM20Wgn5Os/1xqmbjkqyUQa/rInycaBJhu1qnUGi1ptdiaI7IAi6ZTVsZMCIjncjopgP0LEyKtBBsO1CFOjZxHnIGw5PMpKVWL4FRPVvO+dBoZSWTjkgj4pDPogEtdKReTUmgWZIhygpGocqMOrsQc30sgisaZjMpmCbcWjfJZog1hM2iEhaQiLpn3Mjj7oWfthmhacS5xKb1yXDKJgKo0dvvyOnVxKOZDo0pKD/I7H0EEILdMk2FP0umYlPJx7UPqNNMQE1xHw0ykQvLll7+Vt6++Arph6aDRsosoV05JNseuZGgRcJ89ws8gjRtQVYNWA2impJgMSi0bVmvGbmMOZdRzfGFOCqmIVCF39j1au3qlJMNRUTLQwx0gNp90QHBL1ohUxoMutERc54p0miW5hIYo5RISvPRKOglRg94uFpJSLyZkhXydalJOfZfKaapPgsY2Bd/nsUyPlcWlVEAa+YSUCikZN4sgDAYE8soXhsIhaQJJzsK93Y512ge7UtljlEhGgGZEmqWYjCCbC2tySg1yXOu1ZIAKdLttaXQ7kkyjwouOhKGX35ydSD7klgIIDkfDOmzQKqAhQqbrhYzqa8o1AX1CNPUwp0ImMmg8+SBkKyLLYUNnKdP3GA8akuFUERRey8VkMTZ9vzTb7P3P5qKwZtDLIOSHLbTJBOoShDJ1G0XJQo1N2gUQ3tDG2Ifq69czMoQa3LKrcdTS2SDjbgUIByXw9htpVaCr6VuDy+q4sdfVPpRo1GSKFyVjXqkkvDLolGU1bit72PHUhFiwf22ChsPpy228lJqG3extqDE3iOqigV4D4WIpJZVOE1poLF0QOIOWGEKllUsFKSWCqvbWs6HOaqbMb9FQVyB4g9QqZiTuvZSL8xMZk4vwXehVqsf4GGki2gOhMb9banjpBKwdtUG4RhBzSQYu0NBgtUppGXNIaUlVR7O9kGrWL1k0zFourmMDnJUZCnjhW4TF5boAEedowAG52nGAbS1+aIrZtC9TEEyOePHOXr0A0cpKtw+xCVHHh9XZUoLhMnAq5ROkSXQHlurU4RC/5xIsr6v1WtBwQHTKaHgOtw/Igb1AagFxmY4N4SVojWwqhkbXlmGnBGJqksmmYek80ihHgGBDbmHa3/ijMoX8uxIJKRbTMCY96ffqKuMVqMhpN6+jKNF0Biq3BXVn2gu5bfUAPhIPXJzO6mjFaWQo6cRcdsRPOPUMups9/5xExAHSHJyaXjmGxrnQoYdQxC2XznOdzM4hiE4FjbhbQkPOSB3y2aymgWhfqtDLbq9Lvn59LksaM0TpGyBeZDuK+FQFVmGIQmEvCIQcK9GG4BdkGg74oi0J6MZc2C1RWMRuJafeGjP2Ojk5c0BE3KfiD6BC0Cz0fTmsUYXhKAOpUDwm4aAbRMQkGvRKu12Sb84uZAyLx0GDERrdEgZqOULDm3RxDUZmCC2De5xRm42HJRgLgltNFUs2QkUY9kDTY6IXIHq9GGpXfBiZeyCqUszrw5xNpcN28CmCIY9Oghp3q6qnOWTSb+chu9DPTTg8qSDYzLHEvkTicZ1AxVGPNZHFtWGrqgaGiM/REDezDtpPBeLYlojfI0VUnoaKyNoE8z0aoj0VDzyIG66gT/wwn80iXMpsCpkQu8F5atSK4ucQALREGg1yOmhrQStUqJhNwsdIQq5DQDyr95ZQiVOIVBs6d9Asw8JVxJ/JQFX20aDDMgB3wom4RCAKtVpLB/0SUJe0soowtYUVNGs3w3Pag1bt9moHFPPi9pzJZdChhmGBhsYIZQMfIw4N4vQ4YM2iagTIQg71tNs1cUSDYC+cJOjwbqsCZPsoE07WtCccY6axWUCFzqHW4hCjVDIBgPxQe9DZaNjxdEp1PkM0DqxQWxDpLdJOkzUkZB8kmuzg6AEH/GJA2w0iQpen6o8Q0dvrHSIMiIjXKx7o6xz0LWqucn0NFBJoB6VCWHxRH6KRNMx6GqYb2gKoN1H5XrMK8alADydV+3C8anW9kTyCApf7XEHbsSuNgxGWLCvR0Bz07UnXE6I1fAdxHFuZQc28cTnlEmyk0WGXAEeIGLt5wn55dXkuETjptKLMx9nnk15HzhFGnTrRUF1unTlfQpuYwahQtOaLnlThAgyg4iKotMcblEjIK0lUkpMj2I1AcSCh1Bp00Bgh8XsVe+hlh/DfItkiGg2KsnMFwjgxgoNpVciZDmWzy4po4/p2A9e1nJY0XFTqdg5/UXxuEF41gSCHwfLwWwolaINCTscqB2iYlN12rQQ11wLySQnB9awiFNvd3KFM0+dhiDVx4VGHz3cWmQ8P3qQWoBgwWGUGTpe8v7tRFMwoF3uFNjqb4/6OteaAHpDAPfbZcXiNH+ys4KpWQXSpUZNCvQwdDsODyjuhSaqTgU517ZYyCMmu5R0qyoZHhOnHH7qAPzH2xONANIkzfXQUCQ5iscfocB0tGffILu0V3e32FTKVxTWkdxxVu9kpqoN6EY4RYsLRQGdavr+/QlBs8pNDds/UTxp+4qFEa41tnWj1sW1AMIjeqx1wgo2PiajYQ4KmUrzO+9A0vLcBaiDuFs9cs2d1vYZaXUOcDh2SP5nQ48MQbXSi3d92IM4QbSdTmQPh9rWHlbU6F6kqQaSNJpP1yl9+sDDVHkeJL+N1EPbh8T0m3mNfnqom/Gclju/bfdUg+F9mtikL1x4jEGG9aN8QQHTDOCtmLJXJZivvkUDeZ3ou/7/YgRdtXnqRRcRBPx4dEJ2GTegvks8/5vEXQ+hfj7+UA+1Dx3Osv08Ozg+2fv7pDxC6HyCFOn12uPhTFfqjTgKwiYFrcM8P2x4PF+OePZD6bIVw/Y830I+X7Ed1XxrjtiuEgGL0XIXs+3Csnp258Kse9svgf4w4LZ/TGjk1n7MQOHZi38f5n48rZI+r4N4e/cV8vHs8O+FXPfbIbLc/goD7xwPz7Be0idEKIVox955W6KXpFr/aYX8VwASHCcQY887Ihx067N+mg8X7sKT/D+7Bp7ErZKZN0DnjfaLPSQLPTamwXvfLjyNW38M9VQfLJpqzCeyvOZjow9i+CqMifnjBaOVwf/1/8h7dXHak23NEfjWiUche7uCKLoxbSi+PHh/74Q7Eol77eySKHJiMia7tZHGex8H5sueBcHhEh0/YcY/nrFf/vMNGl1+eIAj4YIIEIIRIhnHjweMzU/oOFSJhCBwsUWAyfjevW1xYLmQ46GqXArlgd6r/bKKRUdFVudstzZwPvJAvZSBBAmxiXprTsa8QntVgwcpvo0zESTBjUHY+2sEu81hkfP5hEwNPFuguP9jzNjToxctREes+4z8rpiSxVoVYCSUWz+n0Ca2M/QwrZBNu5JmE2smWe4uUTx+2KAChexSsE1UUISKlyRYFEmNY/XDGzQF9rdDuUCF2XRiCTY+S9nsgkWgzRMgxSjNu/1lE46G9+cSLTUOzCQZhNnKa8PtBvGhVyEafZ72vET25YyrEa1R92nGuvw3ae6KZFp9J9EN0F/tpQPpiZfWBGPvl+/taoUNDI4H7e1ZlNNn5iLhNNAimZrGJ1hFha2bNi0TjhqXGdh8gW/faqU3W2cTgZXti9KVGFk2CjOJsV0hF4ahCeo+yfEw0ytToXtE2ySbafCI/BtGGeJZpkXk4bGLWa1q0GYimrjVE8wX2fb6EBZvBGzYiS1yOKmSINRXiPf7WaT+8rvdMh5B2Cuk1i2iL4APRh8RyLVKP/YXNj8vVQlcwMa3YEHbQuTtcoy7l6CmeWc8soh5WyM53qBCJB0GKNohnBZHYeW7PYdrsdfRBNJhIuIrIY6L5BzUecc4GCVYdSaKg5G1i+EJV9rxuJSJjiwI1CF+q3/rx5UcVItK8xn5mjlVe7xZyC+1yB/Hh1wecuaCaBHn5DhtpQzQIRqJT9YBoAN20HzTJEG6IMQsg2IUZLhjCnq0QiLVl8yDL7Babyx0I/qf7K/nffryT//KHd3L3/l5+uL9ButZp+2w/7OIlsbZBIdGaHhMNwhrHRCsBFtHH1+17ZOHNzTUIWj26Z3MAiaMESjhEB42Py0b807sr6eLat7Gy/C6Yka9dEbkIZ2SwWMrdzRbokyMoB4SrUUGZJJiTrpg+QjRFxGQ4JlprzjPu0bx+rEL2uJ+KD2T4Bub7n95fyatkSf7X372V77/9Sr7/+iuJ+C7l7ZtX8o0nLOFyG2Ye+huiZN5lCLdFhOkJ0XuW8GElwMzJ01rb14+mvr1UIf5mpagFiDjniNzdbeQLV0i+OzuTXjMlpWxMeumIXDpPJZePyPenp3Lx1iHlQtloEgttfr3PiTDPE70xRNvE2oQYwkyNlQO4xntE8mMVstGmVuBEwS/PXHIWCOq0II7OtippqaV84glyQotL1s20NGpxyfovZTwconFDTCBeXLPjRaIRASvRNuGGMItoy+4z7YkGgh+rEBspfYl3Nxvx5bNy7nbr958cXCoXY9JuFGTQr0k6FZagxyHjXlmnURTSl2aJCfrVBA+EvigeT4jG2Sb6+LpNGFXTixXCy1SWweYBwqX/8Po7+f78rVSq/CitIsmQR7yeCxnkQ1JJhWRQTUos4pNENirhTELiHGev1WULDcby7Pc/CQJsos2LzUMcWbKJtgmzieP4yEsVIhfYmO5vd/JbBwgMOSG7ryWXjsn7ZU/enr+S7z2X0gax1VpeuvWEDiK5/C55dX4uFxfn4onwWzVDNBG23/Ms0YbV5iHOr3tI9IF4jum9VCFy4R5ikW62JZaMSBAIcumsYj6hn/+Fgm4JxwIyaefE43JJNUuRSciwApTx7NnZK8kkfDLkF8Eo76NE86atYnjmhMFjNO1E4q+gwp6vEO7Bsl3dbuUfz50SuDyVZj4m9XJe5uOGdMopCSSDOvDZa5Rk0MlKMpUQh8urMyL5/W0gGpBsKSaVTkvn+dkTCbXs54i2CePDNLF8SK8f3VtDNO6ujdtpX7MTC769WkmsVJOY60KG9aRE0dAiQHeOxjbqgtBGVqacg9cqyc2sLYloCGovIdfzrrSyYUnwI0JolHQlry7BAm3LlP2MTOsMSOvlXLVtBEeFD9ESqe23EmWN0zlfrBB8CX56mkpTvcWklAnKaljTNXY4DWg65JptDRn2OQuyicpU5cc7tKFRQxoQk1whJbVuWWK5pFlJCETb4veI6HVDZzIqARO5hbpypXOGaFbGIoxiw1mOJ4HosxWirCfrDUkDrUg8JKcnbyUWutTJWlzXsY2GNx209OvT2ZDr+dTkZjWW5bgHotu6CI7TeymFUkJCiQiI5gIVJop5lmh7aiadbp2aGfYYNHmdxOE6jQm/U/S4zp5UiBP+7uFffH8J9rpOJeZ8I/HQifhiYD9Y3YT+bYD9XICo16pCnhuygJhwhiQnHo66RRm1C5KJesUd8Es05JYZzPqc+tqS66dEq3hAZaFGrWFfqqnLA9EWklyloNhsSLccebZCRMZ38UYm9QhEIyxV6OISJ7qmIlJI8kNtiEW7JL1uTX/3m5ycUoX4gHiIB6e8NbJxKUQ8kgXSQ9DCrrEXkLYaItDaQdUF02mpF8MWmpw4a+7RB/YAiSwKflihsU6fCKYzMm4k9Tt4LiQ6g1rjrLMqJ9QWApLJZvSL3Fm/rVMqoiCs3yiiQXI+Xl0nYaWiHnE7XkvE74ba47vhrlo6+xmijY2nyookuEpQxhA9BVFIJJytOQ+9msoYoo8rdAet4Q44JA4VlogExZ+Ig8Cu6AQVoJjNpuWN40JqpbyMxwM0xpakIePzCc5wlPhZcQ//s4ELiQUvYN5dMpkMdKYD9f/z4gEWU3b4WXEmfilFtH5FUytjZvvW2200kogUc7EnFeI0OK6UyLl7qZhbOrUUZJWIosEhfe1wisfxRkrQCtUSONApowJRcbs88r/8x/+kc6M61YykgXTA5xKfxymz5RA0sSE+K9NEGuERhL5eq8hykpVywmuIRmUYp9HF5AIOm35KyhmjPewKcY5qvlKVSi0hBVSIKxisgTCn/gyA6AoceXN+qtPf6vWcdIHobAAZ7lXku+++ln/83RdA1wlDlIB5z0BzhCXkvgQH2Z+NdgaCqbmeIdrMJqhm0tChNZ3eY9BELa1ZvfkUrFkrK+nIwwrx+5VwMIgKZSUP0z1BY+OCBVOuhDBuy24xUMdoNurrCljJRFTW0Bg+GKCvvvmdhHznsJopaVZT0kPesPdMQtA+XK6LRGsjf45oag7OOMxyhjhNb9HWxbSQyAhfQN3KchwvTj6tEIwIpxBnoZ/XUGMjzpAc9WCoRtC/RZ2MxSGIDIiOQuZb+bj4HfD+ykkp1kqSRHtYQb6naLjxmEfe6iqYIFo1By3iMw2RjWm5GIs3HJJ6IYkIo2TQ5HWIzaDdQOOi6gpKs3IgWldxGQ2lXI5JqxSXGoiajVvQwzUZQiM0q0UpJpwgpiHvrneSLhbEGwlJAxFLo5mTdicvvUpUouAs11zg2itFuKxe/7lOouUiI5qeI5os4Lp5GZ3QzcYUMIRBo9B01yo5uJJcvgP6tnOoEP1uLnAWSEV1ojjnJ20WPTS+mqJbqRelCRXXRiV63Z7UalWknFTg0fnCPnE5TiQfDyCKgejVoVlaBSDtlTis6lp1NHsGTHpKNC6O0TC4ChvnR5dQqBIG48EGWoOhqIKlBTSyLl56XKES0OWqp5x9Pu1X5XY50FXy+HVFLs71FWOweA0YoqFsZ12Y7KakQVgw5ILYNXGtA42CtoRKjhDVpDN0tN6g8jDjCLteJJrxXBeOTAAqp5YL6JoPBk2juwuQ5045rQ10O2k/qFAlE9ClSbLZhMxh4TZQVTM6Q2iIfaKaT4N7QcR/HV1Co9+uA1Wc0fCoYdYTVqSlSwf2axnxeC/Ed/I9QrY1rKzp+n2WaHYOVhs5cQYD8Alq2ij4EGXpGqETV8BIIDCdtPL6eYddIXbC8JuULoLVmN8h18s+5BhyCj/iFhWfw7vrwILOwYF+q4byYA+GdXm/nUCH03x3zHoraAf0BLvQIhfnZ+J3uoQTC0kwAwu7c8gi2UTjjH5rhZAUIM8teGVjyCQfMmHUHA3FA2sYUx9hMarv712hQoFESNL5sK7eQ6PB5X96QHy7GkLHDoB0RJZwfrgGRhGyOoZWWQHdERrnBuKyhShtoBpH7aq0UUHH5bmEwnEgbfcnIiJicHFMtGoPuIDpwJlE0RD52cYEDYcPEekp9GUGxqaU9EmHPgVYyXsaMcMahoIeXTVoDe7MeiVpoEFFoNbSqQA8vQAqWoe6zMj9CsQuJ5KE48/Vf+lPE4AeVB6n8jcrWenVS3Lhv5RYpmB6UsFJIq2fCD4hGsQlA04Jebm4cku/7uFDtP2cwBrwngNtr4yh/LmEOe9xyGyMCmRSPilw/WJEI0SQXwz5EXHn0nE5f/2tZGHad8uu3CEMKxVKkikX5Go1Ajf5JQYbdxRglBBLVpAnIW+dl1JDuGX6xk3cybmozxLNT0UCCYoGiMaLlWgYlglkPBPySaWUkTkij4FVIfoFnXZZgkQG6mvUKkN7NLRRpYtpCSeC4jn/1nwUAZ2byWdlA0ASeMccIjGBQ+WDa9Afd6UG0cmBm5yj6nR71NqaXipDNLslHhBNmZ5BT/u9DjlxOqUBVnP9IEP0HDq3LpFoVPzBkAwQddCt1HtAeojQKBvxS72aQ0OCQWnCmYdRCYRCEnafy3QCNQZVVoPjH85kpdhoSjAZ1ynK/MisUITph+j0oE0YBBfhXfqjMVhZdtgYO2B3AD0hmlFvo53Fy/MwsX5pFRJ7wvqwUucIg+hz9BHqD6FBTIUW+l1KKBzVb68GvZaquRJ8i2TYJdkoA9oaVGUW3mEOlY7Ka4dHV53nRwxcnogfAdHrGyEc40Kl6URMV5qlmjVfXjA9o6e11xQ3Gu0MGkxOYsm0yi8f4sOzaUNqjby0kWLwtcdwmniPWqXTKYoz4NXPnwbQsQNUqFtP66LeUwQEnAhOB78HorjS6rcnDikU2Jj7Ghv2oWWq8BrTCK84vd8Hf7wOL9Am1iSjq58QzWGxRjOtX1G4naew/U6LaPiz85bkc3Fd8fbc5YaBML6HqVBN6rBiXej4WMIn01ZOBhCRTMAFc12ApYSjD7HZgKAl9HOhnEc0U4FVLaqOHneauq4vg4ESAgUPtI7O+6A8U3MsTcc80xOiqVL63bycObjyVFZyMRNuKdGLrpRgZt+++lacrnNplE1Us0RB03kDFUpAJYa01RNlv9ejfRsnly6EVFE0wo6qUOrn+WyAOHQAbpX164s2tMaQsWMHYoZGyP0f2BFPu2H6uD9C9HoLMw60fCG/xKLQx/DYlDBmXPf1MzsuipSBI9WCljEVWqKV8yOElJy9+kZOLk71UxI6SxtYwz4ibFrSHYwMt1dolbLIy29nhtDlIBpWkOvjFlNhEF+RZAp+TyGtw3ZEmoNHNsE0NE+I5qJWdHi4om8acsiPGPgQbf9mM0Zj8yFyiUEfg+3F1L5Cq2VHEtCtbfgRqaALZjgra/gTvVZdktmsRIHekuoLQTCXkR9CKyXhlKXiMVWfqzFMOSqYhsFJAhhGK/xwcgUiOZZDgs1g03MyjdqVIQLpZFRXC86CeCVa2QSrFwpKFiqpBRktIKo2FQIS8Oj8aLSsUAOOUw2oU1Y7zYb4oFEKQG6zmko0nULjG0gOaPKrziQsbyTJlZ/bunpaIOCRGN5xA46vSDQa4DHBHCF7RPS2wQWB67BIzmRC4uFLhFamb0ORRq29AR/Uml8K0B7lnEU0KzQfSiQcllQ2AnQrUGEFyCr9E6g6qMdqwg/LOZLXQfjhMCblClzPeBhqLisOENlHngj0cgEi125UtJuYjhK1Bq2gIdzQ8ITo9W4FJLowv6f6wRmX5+dDrDXlPQYOXALRWiGmn4KYClH2ZnKJcJ9fLxeTiHrKRUQubblG453ArLNzZj1DbIj2sITlm0I8eq0iwiyoT6jXHDhagXHhhw3GoyOBJNr4GwzluBC4nh8SDX+aQ8SLiUTgf0QiDvFHTLcY5ep6t5UWZJZrr6XgpTVKRuXpkvCoEKNnN5ymdjUNLxGyCvFYwwWdI8Zjt9cS3JjRO6Rnh4A3BgIDsRgcpDSiFL/kS+znKwhnNRy0hUHa/jCHhD8ietvgAPsNiKtkImiMYfHADCvRyMQPc9grFAqcSzwXRgMz8m5XqFaIi8/xBtbMrx7iGM8Ou21EQvyasweTzah6LBP8HnagIlF+vxKHk5SVc6jYGNrDcm4GSddw/FmuIg7x48c5+jURCX9MNB+8u72SQaMm5xfn4oCXpmgi8/Vuo5mSkQBMcUBCcJCOKzTp8IMbh0TSIaCWkTpCtTyimD4CVVagjsZIYvkpSRONfQDTv1uPpDUcSQpOEr+AvrvmVH2DtNHPIBrv1IXreH7smhqiOSi/0R1pTlxOOXO+3RO9Bduur9YIdqNyitDeD1Tte1fg0BYRTBKWLIhIPgG1x4UxN3BFu9DZvUZRz/yatAnPbwF1OEYl652e9jglEIZdczoFRQJtxBBsDaDCH2KfN0XF/sbAItkimmoFma/h8+bhlL/yG9+DlWG6vbuSdq8t38KAnCeMZrErxHkdiWhYzuHwBxBdx+ENZtJJmcK/4AfsutIkHCf1P6CjwxGIH8TC5TiD7m7JzdXWaAok9ehAqI7fgOgNftuzIJD+O4tk0xA3aFAcLeXqfjM0nBislBJNdcPK8NMoaJgI9KwTxD2tUEv+8eS1uFEhdg90qnCY4JeXcwhs4RDxa+Ya3NBGo4zQLCGRLIxRxC0blKOyzLFDOGAMLDTEQxsgPXzP7rkvOAzRJA5yDcJurxG0AlVDNFoxrtO03t2sdTmAjNWXd6jQVlZ4hibbA8RL4FSBXyWjAnUQ2oIMxwJumHeu9pqTaCwCrRHUb3RvbvitzGEGAru/NPZE+UwvfndgE03CqPpY0N39zZ5oNaEW2jc3V/qV83MVGgHZBDiRLVdgqGqSgn8R8blQEZ/04clxx6xquy35dAzapSHv312rpaOK4zgPCYaoatlA9+OfnZBortZj5hchEwjnsi0Hos1UH06mur3eyN2d2ankuEKcbHIDDjHwJcrldlOiUI2xTEJ8Ua8kqlWpA+kCQrDpeKyg8BsuioAaEstMM33WVx2KNAgwSJNwzikyRJMDNtFc45HDx9TnDytkPky7uzVf0bHfrgHDwQ/bYyGvFGENswh8+9wUAiLASl9f0afge/BOq7yf9AmKIk3tgUSidfqCRbSNJif/fU6FqLfv7m6ghxfazdWv5XU0i33M/ELuHvqYnEQwfSwKz37889FDkaZ9V8KNFrFb7jHRJJjaAs+/WCGzENpG3kFe3727g2a5k/v377T7YLfmx2sow6o008/+wId62nhTtitoEgtlZR7cs1C1iTaK/6hCYPVmw1U/ISpAkm1AkaVztTp8MffJhvapwyBtiLLPB6JN67avmWSJx3MVAqFrJH6PaCpoKsEPMpmH6Weje3yQaPWu8GIlkmckvkB9ACBoE398z752XCHKO+cimQoY2bXRvbm5+dfWK3/5oUQDNQ1v8GL1spAMYRQB8//4/scqxMQKHH2T+NMb2qcOyrRNlJ1sdEiYOudH94jexyrEM+8z/Sqi8NxhE03ijqZoZnk+JviYGCbK9OMK2ZVFev7T6V/rMESbyIDJRoe/SdSjymirt+8dKvQrqLGfclxfX/9fxwTZB68do2td1oP/X6rQH+XgC59DB0T8fy/d4/WXKvQnPcCBf2f9fHJ8rEJ/tgc0yL+xfv71+Ovx1+OPf0BncKcfftP/f1iX/nr8WocNrm1J8Pv/5tm6/VnHXxn0wgEn6jsbWAV3u/3nzWo2WszG9+vlsvA5QOOZzIMydrv/8jn57APP/rfHHH6MzEodAwNL/eNyuRzNZ+MfdQXRGZcHM9+qPwfYc2UgnPzRZtBL+Y4P3P/FrefP7kAF/tVjYPD/HhHjAscHzm/kJ+j8anvCD6GR+Mn5anUADM//68dlrNdrfvG9mE1HHz6HQU9o+Bmt58/ueA4YhB33iJd2m83C2hZwpRNHOR+Ts7oPYJsvzqFWrlHGPr8pY7NYI2L8HAY9J/lkDlvP5zLnz/IAoQ+aIxOC0BHSDvHdBzvO03UJVkud38H5nZy+xnUIzEoQh6D3uIz1aqnLCCiDENweGASQjxjEfmfQoGrATvj/k1rPn+UB4h6D+2G3W4+4kAOIB7jsCzTdHJyyodM2ZlOdi83vuzhbApK7B4WJ/9lLgHxcMELz2gzSzRMsBunE9SnXbGAZh+47JgbteP6zW8+fJdAg6LGV/2ddWmHNZUHM4hWm0+oA8iEtFejH4BIYHfi1umNsBpExzMezAmQxiIx4XAavMS+e/f/t9z1mDlsPmcPWYy+KoeX9OQD9rJXfbn8kuFCXP9pd+nbS8TZcM6DhjApT4lDGA2BQJK4fuj5fZBCAIkhPpdYshsC1A8zzL7WevoKpM7qhWszXEIePZnhts1r9aYDGS5/xFLb3kLrFbrv8oEMICqw9bmLA3f+2xpdfAtfkO2YQ8tgMYgKD2K37NL+RfNOh/hHmaFruVQQHOs1EwZkygKCbkdo/AdCo1LOewm673m13XBMEgDABKDMqRsAMUASII2QE4mF+AnVYR2QPKoFUUOd6tsvg+bkyuNgmmfcp5th98gZ0qhFLui1gHyeCzDNaw78s0Cj8iadwBWNGcCFRZpUNVopAaTLDMQq0/fuJ1HFrdN5jPqQXmMOkUquS/1Rnm7VReN9+/sCQY+aYQQ2eoaoAsgHbAM2JnroqEwC1ky3FdvoXAxoFPvEUCC6N2R5cJG2e1lmTBTRBeAouRx/X+vw+aZ4jhlhnXn+uDF1tmO+wWw6AthlkWgRpMeDqtBhtFQZkgmu/1xjTg55W3Yy0B1t1MzwW/QDMXPvVgEYhTz0Fyw0DcQ/WhzlOZkGPl4AxEvokj3WNZzN+bQGNMo7za3mPy8Bvw9CjfNZZ79nPAnBVFZBmnQRoSTSTrT6eBRlJv4NUkI0x/EVAv+QpbNZ0/hf/bJobpwsfpIGVUIlRojmA9FQlKDAAwa7Uc0mZg3Sl4L5QxjG4zGP9NzQ8BHoP9lEeTkEi2Oa/oZe/WRcbaKZjoAnwHmRLmu17PwloPPispwCCFqvVXNfdIZd51gVT0Ox0GpNVQW2iT6SOY/tmitKnmUNjRel/DC7VyseZw/x263kMMpPtWZgznsfZ/m0MISXb0MX1VDhp7bFE09U7AP1QwqHPPw40KvXEU4Dkap8CXvTBAIsXA1gFmL8VaAPY8y4YIzNY7BUsM5I+z3KeYQ5BfpZBCCYUGIsBewZZwD5kkCnPnlrAezaQTNTHO9zbwrjxt0nmWZ1vaZW7BxqJ9baBPgbUJBv0zwD65ubmfzquGF7EDeT24C7hL3IRgv36RRbQJOKpld/tpcMmUHXcUb5j5rCCzzGIkk9DtX8eZZh8zzPIdvOMFIIZpI1l45rtum13pBdqCIaR6YYJEs95okxcBErLUIk279Q6qCQfVMNxUrD1O11ItpVeBBqV/H+vr6/78BPvUdgHu4kw8UX22YAGsHA+BlelFpXaE6bpeeYwsTJPozsyiH0S9t5xpqKHfEetB7/5PjsZsI1UEmCd8Qtwb+HKcQbnHbyOH27W8of7K/n97U5+vLuSf3p/LT/c7+T9zUbe3Zq5VVz7iTsHUu2YSbmst8GBoO5xeQy0huImOvyoRPMiKv5gvajHyQbveAUjgvPSs/bZAGaY80sYZHsDpjkfQKaKIMhUB2o0Ie03kNwfrlbyv7+7lv/8h1v54Q93MgSt5clcOmBmZDCTeHsk7eVWBgu0nN2V/PDuRn7PaYIA/oa6HMziSkqc68g6a334W8+g8RhoK7H/hIB/EmjTRA7cs/8b0JgOLzJ5Hu6G+DjZwD3O93MYRKAPyQKcLQNg81tTNv1bqIXf327kx3c7mUEyg62evA7l5R9OgvK3vzuTv/2HV/Lvv/hO/u5338g3r97I33/3Vv7x9Zmc++MSKDQk1urIEOVyxvgtWsAVI0UAzvcb+rlqzlPJfgz2Z0j0USGaUBALJ0c1mevHQPM3rz3PHCMNvKbNEOfPY5CdDgxiftW98AIMyEbiuI7HNQD5AeBc3a6kMhvL312G5N99CSB/+434HGeSiV5KMx+XeiYq1VREpo28frv1+tU3kghfSCB0KV+cOuV//t4tby9jUizWZTAayhLvoNdy6Nc4AK2gQzezQ+kYaKbPANq4KnYoyULtih5AMBy28ugzNsgmHTGH/0Gg5rPST2WQnfaSbQHNpr2DHn53s5J3dxuJViry9xeX8h+/fSMXIe47x6+R0hINeiSXDEshE5Nc1C9VrhNy8UpOnGe6pUs4EZCQ70SSvgvJ+S+kEPVKDtezkbDUK1WosAV0PDwhvOuY+abeANYyhJ8P9AZAWz6hXWEbAFOwDQIqjeZ7APoxc57LY0A6MIgS/fkMsvOyHNub4ET4P9xfS38+l4tIXH771XdyHghIOJuQEpduCnslHA1KoZSSXrcsPUixWQigJPVSUiIRn3574Tg/kXYlLb/fdqTXS+tyZsmYXxpxj9QSXmnXqzIBLirZbEnsWGJdcc1I9EOQDdAvBCy8uOFnwCjATgcATOI1U+kD0HTLbOYc53kKNPMwYjISrflsBh09+zTfgUGspAliFnJ/vZa7u50U2h358vxC/u6br+Tr07fy1nkh5UJC5v2SdIpR6VWhBjJhiSQjkOqgNEpx6be40VtMWvmwtPG/mg7JsF6QeCQoYYAfTwclmnBLMOGRbDYk+Qy/h8pLd8QOfQJNGkG3VWcmgmufmV7sJn0MNCtpznZCxfHfBmIDvWgDdpznSbLyqH6lYTsG+hkGMT0E2uQhY+lhXMPPfXe9lSWMqStXlP/w9kS+9jjlxHUqLteJvDl7K6VyRq5XfXm3hVeRi8oFGPDV96/kzeWp5NMB6WQCEvWcSToRlH4zJ7N2WircCzGM1pBOSSAWkgu/V84CkHi/Szw+FxjokHAmI1MuD8OWBUxIJ2m3wbXrwvRZEr2vtJXJbuL2b3KUG+wyD7foOdwzeV5iDvPR9dJ3IdJ7kO9xsvKZ1kMmLTS4oL87hzfxKhiX790e8abCks4HJZP1SRKS6PH7JB0NyG5Q1VSCNPu9F/L60ilnPo90u0UZ9yuSy8b0G7JyMSvNWkqqUDUp6moYxRqYE0cZ526nXCLP+fffivvkawkGXdLsdqDSoDr2n2QdsDlOP0117M/HksfRg4kuYsU83GvXXLdawP65h3kIMo0Jv4hivuHE3DP3n7Ye+zorw9ZzA8a+Q5DRmc3lJJIUH6SNG7zyw1I/QGnVoSpaZQmHg9Jrl3VljhGklUB78Nw5nuee1ON6RgaVlMRCLklC/9aKEUnHocfzaaiJpK5FMW9kZTGsSKyQEk8yAT3ulUI2gnckJF2Gnu/19fs31tVg81CamT6pOvbNwGoKdpPgmQVvYKi4byS/Y2aeie43ab3Aemb/30psZoY58BisYGUM14n3PodBbD1c8K43n8mJNywXZ/Aazl5LMuiQdjEsOX4oC8lLAGQuarAYlM32kY2c7l1MPdvGda5KMuzUZNCBceuU5H7dl7vtRBLJKFSDS86cl5JDC9lMzM7QRUg4Nw6PJkMSzsXEhfd5uaBjvSwj0Ee1xhVb98Z7LyCfYQw1sgFgNtjHQNPS8rNhjlD4oR+ZZ8rNmY+et5+1zzZzbsgcWG13yny7bb+Hz32KQfdoBYPpQlyhiIScJ5BkD4xdWSatjJRy/HjRK6moW6owfotRVffmHMDL4JIuXGRhgv+zIZc7bAuXhxu0KrqoE1f5WU27uk5jE0Zxu+7K++uxXE1byFeQLpjDFdgSAJtfO3PvUBrGdCknbQiY7q+sYB+DzN+fIdFcApF+4cPKA+TZVL8cfne1lnStK68cZqkM7gH3gDl4/vi8ghTqx+gAOpAtiTfo37eEfZ5n8vHdW7YeMHUE4h2xsIT9TkmlQhJLA/B4SFw+eAhBtxTCLkh2VKbwJri+Ez8uJsBcEolrN3E9yVG/Ad3cEN3HHKCPAPhs2JHNvC9Xi4G8Q8h+jTM3+Z2TKWBCCQwIhty6XmWiWpA81E4uF5QAPJhiqyvzlVm8SlfdoiqxpJrpExJtrU85NXMTzMLw5swPiN9dr6QDgE68CADC5tPwLQyVLotnMceAZpIyB/r1breRfKMrJx4vAgXzdTZ3fH2JQQSZDLoBg9iBdBFPI3JDYMEtRUMeiQHws5O3cnn6tfiCl+JH0y4V4abBF27AtWuAETUmGLx+s6QrgHFPSS6Vw4UtuIfquFPRdTG3i56sAfZy2teV8CaDBhjQkClaDBfwSoY94nafi9txIqGgV7L5hO6OmINvveCefUuOIx4PCBjJ/iygCRwfNpVnpSfa9NeblXhiUcnHXFIvmAUTFVgyZs8c/LeYwwUw7sGcEZ5xQ39WUwEZVM1yJQsy5wmDrNaDM8Pq+6utREo1eetwSAgMSgROpBI+lSSkLAU/NxG/FFfYh6AEehMSly2bnZ17nbp0AfAYRm3QKkInl3CtKh2A2+81ZdhtypSgI02gTrhi6nrckkWvoku0cU1E7ik/amZlDPXEXc7DrjNINwwwwvYUostcA2oJ7iYlWifT7IE2uH0SaC6P+UB1AGgapBt4GalaVSIxp7RyXjQfe2VKgAWQD8yhhONFMAi37MQHc4LwTTNRp5TgqyZSJp+udv0Cg7Zg0DsEJIVWS1x+j7SyXCI5K+t+WnIJSFOeC/LloSpSuM6ViHNSRjSX8Z9LznMupZBT6sUUgG1JE94IgaPaoGRzW22uqztAdJhDSJ7iOugN2Buu3TEh4LjfryGoKUofDOLiIlmopqT3RHIhB9w+uIFIOejpIeimNJuFVU1igPUZqoPGcArw0JwBoIINwOj7DuElhONRaTeSurxLBBLKPDbI2uw1WcyBSqG3kG/WJQZjUs8DZIDhsHX0BPleYNA9GMT+BSckqJS8lCL82gjXyYGe5tIx6VIBaqKgaycsZ1wX1SxfRwkeNxJwv4q6uzBXdqHLxuVzudbkjDOMkLgaVwWGLZxKaIBCNXK7HkI9jqTTbcNDKeqeukOomRbUB7e8j0FFOc+/E5cbrcvjkEwqKqMx83CCJPtA2FduVMinJXpLP5qg2YaK1hMhLwrIFIvQTS6pVWK6tG7FXhsKAJE5+rylc9mrxU53MieGytRqSV3Tj4tOVJCX+XQvpEcM4m8y6AoMSpRLkk5BmsGgIFqPA4FIHLqR67GG4gHpwlfm3uncnJXGjit6zWHIuGJdAM9c4F2vT95I3Hku2XhMCiivCwmnqiCwXG20CuPZg9R20HIisYx8+92ZvD49lzz0fLOEFoFW0c7Dz/aeIr2VbDIsrkBA/IhEuTDXbD6AR2V09F59qNB8UnUYP1olDKEm1z7m1hm9Xk/CkI5JzS93My6FhqaTsBZ+gbFS5iiDLG+B4TKZU2IAAeYUQtrfUATIXDdW37VePWUQDC4Z1MH7QvGI9LpZqVfyuvZEJR+VAvRyAwHGDJLMxetm4666bPy2fzzoynjYlUA4JP/p+ze6AXMVqmraK0E44JYlg2hVCXXvuMYybUwLQpNLh+T719/LF3//D/L3f/+FfPnVl+K8PMP1sHZA1YoIz/NJqAsv6uKTUBJBEsLybCEr8+UQ9TSTalhv2hYGMGrMP6062ITJGbPkKztxKtkspDgs3VFZWrWMpOhSATgDmJnNyTzKHOhzgtXrdyWBiGzUCMj9siCdQliyMCJcXIz5OMb3hEF4F0Ntbo4fg8Fl1FbkAtWltLSgCvr1gq4dOqHnADdtAgmmpzAG2FyOc7sY6ZJaSfjUiw6MIPRrDWpmAKaw965ZzUBPV3XZTq5EVYL6cFycyhdf/Vb+8csv5PU3v5VIwCE1MLUBddEq452ILgcIfqJgdoD0x+DuwQPJpKPaotiTR6zoYXEhBw3LP0dH26AxWCDQ035fqjAaJaiKdi2tnedcovkgmUtIJplDrpI57C+eA6SilAtx6SGU7bWgBuAmZRFpDVBZ867VAwaZfpCltFsNPMtF/xJyP89LJeHRvotcJipLGCqG1jRsXMqRamA566t7tsJ5NR8iSIG0d8qyQ6DDxQEplRm81wfXMJaIIFLMyBD+cBY61gHV4jj/XqKRSzATxhR+c7qYV+nnkrpD6PoZ/W4wpwb7kvJfSAyMcMK9zKeDskKLUqAh0bQxDFQ+H2hwhZm0MwfhZauGIAOGLwC3Lg3fNJcKQjLSAN0sOsixOgLGPMocSORs0ANzkpKHHiyXkpAQ6HQYNJ5LyK/5VHUcMwjGBARXc1lUOiHDYU3a9ZxWrATGcvHOGYwY15fiiqFcOm+KgGNBcIfcVz0jab9DYvA6OrAHUwRSW1SYi3Dmq2U5c/mhVqJShcRztd7QJbwTeDM9RI1dSHu3z1XPq1KAxKYCTu2fXujSZ2Ao14ft5CSFVsyVmhyuSylAd690m8aDD60hufUbgvQp1QGXBXqGRnA+RvPKxSXBxeLKkK4UJIILH0JvTWFEmIfumzKHTcdmTqMsfjInCoCh34poho0qmmC7COLMWkLPMYhBRSkdAzAZqQDsBgCpUq/DBatCorbzHoxeR/owhD01ZPCN2zWExriPa/0hfFu4bnNIWh+uHAcHhlBLqXxWLgEQBwG4NHKzAOmEeslBRXBJqiiYWQycS8J9JlFIvt8P9zUIg1uDRHNJbzB5UElIkQuTIiQPR9xarzW8MzPXGlgxaGH3qZU+CbQxSuAIHp50a9DPXLEvAUlDZdBcEgA7Dl21RTPWPCqZZvF/mzlcESoJncYFwmrQsVx3q4ym2sb53RIhrw30IwbVEHR4wKAQGMTFq9nB0wSDuCbdZt6Vu81YrqAmtnDndN19uGAdML5ehrTBeNKVy+E9BH84HEmr2YLnA6mDWmk1C1AlHZlBejPxIFqpX05cDjlzXkAVxmXE8H2A+oJmuoWZZFR6cGO58ca4XVDfPQT3tliA/YCq4VqmG4BL904jQwBu+9CfBTQ9Dhok+s5sSlkufg0pa5UT0MthifvPZAiirxC6Mo/5joPMoW6GvoVOq5QikkG+CiSxDpWRAmAJVG4JX/cKUsl87Bs4ZhDVQDHhl1QyAo8ADOIigAC5BOC4ovcP65G8205kC1+XennJPgyokLEKAz2IrDQb3FrCJ+1iEpFfBapjCB+7D6NYRhlFAFaWBtUXvBHq2FoanhQCIYbhV6uh7MCI+ZCbhZR0sVd6KFxAdlCHOoOqSELXh11vJeF8DaEpob4rYAWgqT5wpu/PKRIG6M3HgaY029u3VZtl8QGgS3gPaRi2YbeokdMtwGI3owINTpI5HPK/3a4gSU0pwEuIwtetFkMIu71SiHvgZlVkB6nsQ0LsfMcM4pqrJYtBdSSuER+FEUzCd71b9gAC1UYPHkBZh51mMIgr6Gyuxr+A0WoC3AqYVIb71SvFca2qSwXPJghQ4GVMEKiMoQbmeA/XNGarmHMLDYTqCxjVDZmHZ5fwXhbwy+eIFLkKNVtTt5JCsOYXr/NMHK++kcuTE6jHjnC1JRg9gLsUXXgRQOuYIn5/UqI5NscH6Xo1q3Fd3D6EZtaAFZ4g1KVxWHBxcBgI5lErC6AIND2QBoIBfwLMQQSYgEu2HNcBcFulZdYrSwUG8jGDOFWgC8nMQe/FITXVEly6pEdXqebityu8r1nLSRESXm7VoZvL8Oe78vvtSK65PvhsoIarQzcQRowdWcN+Gz53Vhe1q6LcAZdYm/bk3W4md8izAJOG0PFjhNtcQZvezBohOBchXeJ9ZAbXAeVSxj3UIx5w6xq3545zifjD8KZgx0A7V1Rlx5dOU9PE33CLPynR1DdccxkqoAxpjAFoNplM0geDmJROA3oLzYnrd2oeNhcyB1xlhNeqxSUJY5GCv1yHoenC6+DCujNIHiM3e4F17tzB1kOgOR5YaRTFBwm+DHGnpBQkrAUGwTeG8aQfW0AoXGzXpVLLQ5fDqEKnZ6AyuKY/O+nbcM24W8JyPZZ2t6PriFLHDsAc2po+ApoKwvYRaOFeFew2HcAfn0KC1wuzzOcCdeLKsGvcX+M3t+7pwjBzZbZkLCAe94WcnJ9KKJaWGerNeYE6bUz9f7p0ULv8jeuf1tHQnTNYUS4jHvdxoVWH+AIeiYe9qpu5pPigAR0G94p52AKMH0nmtOAeuSTigwVPcAwOLQFAc9SZFZxCp26gY5mPLUFbDxjE5l2H2ohH4DOjNTSTcLsYXECnc2sf9mMsYKh6jawEA145R2UjQZcu8urzesR54ZA6Aogh1ACXK2+jqd9B2v/p3VL+8H6r/RcOF8pOxdQXp0FlPwntAhd+7UC3V/Ip2IggWkVKGdNtViA0eRmNwKBiDp4GWinC+nM3hK5cA6AmmNOpahbQTJzQQw/qkxJNoDmhmm5QDUaslIaEpuJShnWnRLJDfIR7lFLmoV5Sg4h8lJB0yAlddipB3yUkG8YGupJ5BuwXRpNfQE8yn+nxovpYICCoSTbiRJN0SByBSRJAc3FZZRCChQWkjAziOQ+PJo2wuViMSwR60+0+lfPvvpSLk29htKNwudpys50iGuwoSKvJEOqjKNFMWhJ5RItQKVzOmrsIMWxnt6k3FhNXwC91qAlu59GEyslCgrk8cAWJS8Bz3703J2fii8RkMOppNwNtixk4ptCYjjR7utqngUbFqTu5xnwmHha31y8Xbp/4QwhJG1VdVXQC/TYFqMxjNu+BtwGwp5C+JppyCcFDJJeRZC4N8GswLNw5q44yIQkwiMzHVR252RQZxA6ipP9c/K5zCaB5FhAY0QaQSVy4nIZvCf+4SxVSyiN6yyFM5zZ4QSklvYg4nWg5MRixhvz+dg2D3JaLQEhCyZTcXEGXAvhiJSeBSEhycAEZfi8RbNDfrqGFBhJxCSFWaIMOtooGApMO7EQxAV8bUWI6l5JIIiXuYFjfr/P9AChdYBtc0zqPgf6I6tCZSlQdAK0HFycGvRyE18F9/Sqw5h1EUrTAQ3ZHwrdkHobb2grAnBGaN5v/2dm5vLlwiscDxx6gjDsc4YArxjWZrRDc7L7IvGAQDFKDYT4YFAaD0kgm8GCHUU0jsy2ae7+OQMjllvPTE3GdvZKo+63UEU7f7sYyBkPo214tx1JuVOS1NyzBdFZyhZK4fRFxAHiXH6E1vBm6hwuoK/r8a4DOHSO5YnES0WwVHs0UhnECQSPoQ4BP9zYIoMNgyGg8EM6vXnMy0F6KKdF2gntHJnwUaM4mxYP0ImYz6KleXurQyw3qK7g5WQQtQfipaRhHLpPPPLoXEfJwd4bxuAJCk5KBlS7C0nNvok7WJzUEPW3o6gmYM2+mNR9n9Rt7MEUUV9L5cecOpzLI5/XqVoNTNHN2IHFwlQtyF2BcK/B/64jsWPYAIHcgydxAIREJ6CZiq+kQYXZeQoEAAouInEKnfnPhkW/OXYj4fGpHVtybC+4evRUCnQetdCUZUA2rWSkhIGsgalzBBeQWRjHu+AAdnctyFxN2GxtVYasNI8VGkuneEexPA225LNN5U2qNjOQhaWmErux1C4VD8vr8QsIBLu1vJFODDoaheOFs1oTFz8EzgBsGt6oFKUvnkuINIcyFnuvAa6lkTO/dGJGbGQaCmhoUpVJPSbYIgwSJa7MLM2MY1IO7Nu0UZQIGLcdG9TAIGlTiuJaROgKVPkL7GewGO4CmAE579eCadQFaDmrowu1RFTjgEBaCkGGHg68duHA9eDcD+M9QIVB5eQRJebRgelabzQTPt3Vhfl88JokonAEwniv2UnIJLEEnuNxLQT/J4G8rfVRHG4k27tZ83pJuJye5YlpenZ6K8+13kg075BJhazgM6QGImscaDaHe4h4MjVYGLldcYvAOPJcO8Xrd8vaCG0zAM6jAPbS2VzJNzGZQXZqdrJShR8swXC0ENSnoRTdC4UTMLyMwoQwDGIdO9l86JY8WRd0fiMfly9MLSWUSCFDqMhvCk8B1DrpOYaw3q7HsOGYJo8hl5nWHLqgp7mkyg2TP4XVwJfcBQnaG9NwDgrvL0BUdtqoSDXkkACELAeQ6pF09DUaAEBANTB4kE0coyDh/Gmhmog5awiK38+pxeP0eaUI31yA9OfjVDVSaWyjsgcaL1VFHBDfs5iWPwOHVxYUkvE5pFRC2oyly5KNRyqBSxlvhV1WMqEg895SoN9JSQNMMeS/FcfYWDHLKK7hx3AGk28xp3hw8jikCGM6r40ZdSRiqcCqiC1gPcH277EMVADyA2ashWoROH0Bye9woownvBypjDEPOjQm4FwtHZ2ik2Z/CllGGVHNB9w7c1xT0dSSLCBduai7m0xjBzJOmS/cQ3KfpU8YQQDNm52g398DiXppe9mZBP0VhLPz+CwDHfYFAFPxOzYOCGeuTOZvNUGcDpWA8uIFHDro6C3ctyy0Ei6ZTid2dhkH8ToVAs5sUQQkYROv++vRMMgC3VcT7fC7dtaQHnUs3bzPlDlBDqIm6Shh3giiUCxKEfuaGNJvFCEZzgAS1BF3N7tKK+tcF3ZyPQUsUDM8DwBnUBgMXBkSTbhFhfwz1yuF6H/q5oHOj03F2C8dgQ1o6RZi9gTT+bPEG7AO4rA+T+f1ZQKNZoFBuRlMCmLFYRA1bOhtR0Lpwh4oglFtVMA+5t6C60ZdMpAbm+Hwe8UOfh0FoBIaqUUxKHRJWykPfQqIODALhZBAkscdRjEREfEEffOQ03hWRMtwrMqhVzsDFg35m5Aar32zUJRpP6k5BVDFZ0FkD0GtEizRyHYTp3S43coB3gTwNtL4ADKEvCH8YdLFnjn3djVYRLim3YeToTF82YFKzXlQG89kwVFMDqky/4gK97BJdgWZboh+DfPzZM/6/DPRmu20s1gB5u9HYvQKDxi01XD439GEYnoFD99dLQSraVbOkO78f5C5F3CBls56iCcLHRQRFplBXE7BGBUY1lYRhZRBiNrgigTaDlKlotl4wKIzgIQApjiLY6cGYccyQ4bTqUzR1bsQ2hqErgHn0gkp4pgz10YV6WEGiC7WyvAnGJJzOw+D2oLe7aFk5ccEDYf84t6dOQR2eu73i8PkklQxDr1cVuE6nLTn4/gztw0EvvBzuPQU9DxoJsFF1xsNQ9WABbcA2kmwSrn1corcN7YXa8SulJZpMU2drngfd8Ikduj0TdSN3buSWIAawlUomN3VZ4wV0Bb1QGw4YwwCkjbM2OarCcLmIYIG75+q7lEFUOajEAr4vwCSDcmjqZBAjwDYMJxlULnCjT0al3IuNPW9NWQ0qMqqlpZ3wSQMRLAMounalCoQjGpEktwGEEaRHwTkaRYTm3XIaOpyTawow8nlxJePaJ8NdFEKhKOKFkLa8KCcJwVuaqs8MLAAqgTYflBJo260zYHN0iEl3B+FvBfsTQGtGFH5ztdMtKGvFhMR9Z7rr4yXADgadkkaIzG1MmMduTtwmgntZcO4E9/30BBzwEE4kCKNWABCsJEeh25yssmcQCFcGzaWKCrqgNi4hzUEwhDvw0F/OgdE1gELPgPPoNtOe9tjtuI8iJJxbbVLXrmZdNH1EfHTt6A72yjoas4YvvJ611eWMxqM6WpTIZCSIqLEGH/kK7iJ34+k0y1BJNfH4EG2C6RPoau4YoUNslvum0svWC5AN4GYqxg737L1jdBsWgv4poMkl6hpu3nGNgidwe1JxjyRjLinCg8gg8PDHIKHwAhRoRHYkgpwnc65BxAguEndWOwfQoeC5hCKX+tUTvQo7dNcheUi1zSCOZCch+R7fhfidJ7prEIeyyKAGdHYf3gpDZhqrxWykA7EcP+ToyUZDaiS0jAXUxwK+8VwXkYLqwDPc6buAoKOQTcG4RaCn3WhpTqnEfZKBfg+ixSahj+OIJPNg8qgPowv1yVmzBHcNgaA0s/vYeBuWjoZhJNBbCNsxyJ8FNBU9mzVXEri7wbX5BFFZUWIwDh6vD15IAP6tV+IIWhRogKx5FGgwh/odQHCKVi6GiA1BQCwJDwJGlT1gtZw1TYHGE/lsBu0WE93ClJtoOlyGQd6QA0GSS3fxol9cZT9KOi5VhPXVUh5GMivcFMhMxWU/TB0+M3Q4Quthr40E9w0tgVN02TLKYDQ/tbhG4HO1GcsAxjKcy4rLdSEu+PtJ+My9dhMhPerBhQEA7or78RBktr7HQLPeAHmDCNfeo0cTpP2zgCbndI+eG7zweoNm2EFkhHDW6ZC3CI8vnKe6Kz/zcAdp5iERypzbK/3OZNBsSIJfPF2ciwuMcQeg5yGpIY/ZJkqnGJDQIwYtAFARaqmQ9EuCw19pbjES1lGWVhGRIELxMefNMSgZN2Acqzqvo9soIyTPSgUS2yykYUc4ko4ok4PJsCfjTlXubwEa1MgQbuISdWv2ehKHKikVghLhyHfcjzIHEK6dfjVrS/IeXMYKOJvOI/5mp9JMAd7ocJzpItUQHTr606rDbiI4c+OMG7yYepTb8XjhbXBLnlcIKi4hIcyj/cqUauShTrsCaAR7CQe/UCog/HXLd44LqBHo+QDUQsCl+bgB055Bui0KghgQ2q1xlxwYUzCIA7Uun1NCYGoMTCvlASaaOvuPW9D1HQQh3GGVM5cW3JccenoOv3g6bqq7yDB8vRjAAJelBMNXSMPzKRTF7fKK6+SNhNFyXJ4LBCx5qMCJ0sAP8M0iKQbkwyfRRjcz/NY6U2USYCarc4kDAQ8XH7haWvAeDt5QoPEwvQc1BOAsQbi5Q2ZIdhcuFqMwB0JjD0BXwMhpZQwS8nHFLbYCfuI7hV+bRkBxBvfwOzTNEwCXgAphPhPGPmTQPSpKBpBB3Dr024sT3QnLD8MaRIvIwjZwa/xCNqtNfAudPIEAVOGVlHIZaUB6qX4YGPG7FPYnc3fNPBiURJgegTcRgvpqd0riQzkh6GZOjGE37zXti6XOGGarp8G6kU6oBgLLjiQOJnPqF78PZ6JxfAQu/u/+7Yvr2/MBBiy6yhaDCBoCAgcQbiHZ9zd0yOe69VEbvnIaupJ5OJ/BLOlgAOPqBFcAmxtZ3QBwTgNuwJ3iLH0/dGDa2mRQ8z1gEJhzDRUCBk1g0JLQw5w/x927nPAKsnD7qtUM3C9+8pBR1y8RC0kaUWEd+podSdwYuZDyS4SGFDFAr8NOpDaCEDyb5vctGfjISTkPhGGc4RZCZ88XS6jIa4386AkZfQzaAKAtvZzgQ+Nt0sRI7pMFDT8C7vHBh4+BVl8QYOu+UwCPu9Td3l7r/lMcIefAJvPoBz1Hefb7UXHphit4L9dcJWAlY0RqlUICwcNhW1WT74hBV4ZBahdgqKo0jjCmQQCdh9QWSlXJwtWrNKoITGqShUdSRtSYCgfgtiEggevm9cCdhG/cq+XNyAzH/uplndccSeD9HDVC0MWFpq5vb+Se21JRJ1Oa1zgTZIbZANiAzLknBJct/CG4P2tXBmZ8CLQBjB9eqqtDFQIg+HXU/R0MhrVvFkPpY6BNHiZL7UDH391D911zkABEo/LMx4kmH2fQRis8gh7mDpM5SG22VJIydHi5WZd0pSThYhbhsgNhPqQYEV+Os4nAnCQAbbQaMoQQdOdzKSKK5XfgHbiJk35PmfqO63RwVykFmAkMpx6GFFMlEGBeOwYXUrv9xVteGKARsKDiD4HmQk8Am9sE8TcI24FQbo1lCOBiJrC0T5jDdY82Ki1c3uEOwN3fQYLem53aKCFPGcR3WQy6JYOuId1gCnxhdiq12CkPV68G41WC+krSM4HNCEEl+fyX4oZkRwtQD5DgfBG6ORGQSswPnZ2R6XAg2+tblHmrgsKN0VgXlWQF26iLZ/Rt9lfdT4SF2hJtKk7QjhObjkmUCHsDKl3YhMzRfDbQ9rNcKMr6jed33JWI4GslPsYgVBZ56QHccd0MMOgW5y2e5/SAYbuKQCYjzUwEaiCk362wl44fCjURyXInfnYu7eZj2BYYWTCM4N5BjfHrW6UP7zTq4OkSQ5+tb3/OwRfsVQd8wb0/CJC1dwrE0TgaCQCAFucJjAHZfvaYSZa06Jl6cIPfBujPZZDqbuSh6nkPnfrujlJ5Ay+Buh/00HjRI0DaXqMF3IApAPb9HXQomHnHYEjfjfIsGrYA9o8K7vFhgdY47pUiaARBgVaAj86W7iLgj5mzz6dAHRKl52cxSCWd4NMow+eGbr2H7qc7+P4WqgDA30PVvIPU0kO6xnNmV0orkcF472NwAfr/aFX/j3dYlddOpQPQBtjnkkoa81Ay93keMuZpMhLFfDSuBwbZzHmBQSr9O+F+eAoaymFZtBvmTGBJB8rkt38Ad8XdCPH8Mbj4/cuN2S89DNBmS0YDGiq5B9AkgnUMgJUH9w559JlHeez0MN8xg/jcywxSlcOkkg2dSoD3Us4zNyNkwu+nKuHXNWa/9LBAa5huQAOcHVAQnOd+W3nwLC22BZp1fw+iAvUwHeczz1mAHuUzANtAHyfcg8TTO7GZ8Fgl4P8fR9/+nMNU3uhoAmV3Lj2X2HTtyqlRI3OQ7zgPQTnOc3x9n+8nMuiQDu+30581uMcHiSXQx2DZv7XzRyXnoY9p5enbz7+UnpM6SPStdtR8BoMO738KrkX+X85hKm+AttNz4B7vaXqcxwbE/v04L0DZGyI73zGYz6XH4B6X8Rd7mMpDR0OiXgLo8WHyEGgzBH+cz8r7rCE65HueQZ9Txl/sgQrp9pU/pXJ81t6U9CjvJ3Uln7MZRNXxmEFI3/03Be7xAUn6Nz+1cgDknsB8DrjHB/P8HAb99fiJB4D9WQz66/HX4xPHb37zXwGbcmIdod8HEQAAAABJRU5ErkJggg==;fontFamily=Times New Roman;labelPosition=center;align=center;" vertex="1" parent="1">
          <mxGeometry x="90" y="141" width="90" height="169" as="geometry" />
        </mxCell>
        <mxCell id="YCPGuai8Zoc8Pll9OkgD-11" style="edgeStyle=orthogonalEdgeStyle;rounded=0;orthogonalLoop=1;jettySize=auto;html=1;exitX=1;exitY=0.5;exitDx=0;exitDy=0;entryX=0;entryY=0.5;entryDx=0;entryDy=0;" edge="1" parent="1" source="YCPGuai8Zoc8Pll9OkgD-5" target="YCPGuai8Zoc8Pll9OkgD-7">
          <mxGeometry relative="1" as="geometry" />
        </mxCell>
        <mxCell id="YCPGuai8Zoc8Pll9OkgD-13" style="edgeStyle=orthogonalEdgeStyle;rounded=0;orthogonalLoop=1;jettySize=auto;html=1;exitX=1;exitY=0.5;exitDx=0;exitDy=0;entryX=0.5;entryY=0;entryDx=0;entryDy=0;" edge="1" parent="1" source="YCPGuai8Zoc8Pll9OkgD-5" target="YCPGuai8Zoc8Pll9OkgD-6">
          <mxGeometry relative="1" as="geometry" />
        </mxCell>
        <mxCell id="YCPGuai8Zoc8Pll9OkgD-5" value="&lt;font face=&quot;Times New Roman&quot;&gt;Stage 1: \(\phi_{1}^{[1]}\)&lt;/font&gt;" style="rounded=1;whiteSpace=wrap;html=1;strokeWidth=1;" vertex="1" parent="1">
          <mxGeometry x="210" y="210" width="70" height="30" as="geometry" />
        </mxCell>
        <mxCell id="YCPGuai8Zoc8Pll9OkgD-6" value="&lt;font face=&quot;Times New Roman&quot;&gt;Feature Refinement Module&lt;/font&gt;&lt;font face=&quot;Times New Roman&quot;&gt;: \(r_{1}^{[1]}\)&lt;/font&gt;" style="rounded=1;whiteSpace=wrap;html=1;strokeWidth=1;" vertex="1" parent="1">
          <mxGeometry x="310" y="280" width="170" height="30" as="geometry" />
        </mxCell>
        <mxCell id="YCPGuai8Zoc8Pll9OkgD-12" style="edgeStyle=orthogonalEdgeStyle;rounded=0;orthogonalLoop=1;jettySize=auto;html=1;exitX=1;exitY=0.5;exitDx=0;exitDy=0;entryX=0;entryY=0.5;entryDx=0;entryDy=0;" edge="1" parent="1" source="YCPGuai8Zoc8Pll9OkgD-7" target="YCPGuai8Zoc8Pll9OkgD-8">
          <mxGeometry relative="1" as="geometry" />
        </mxCell>
        <mxCell id="YCPGuai8Zoc8Pll9OkgD-16" style="edgeStyle=orthogonalEdgeStyle;rounded=0;orthogonalLoop=1;jettySize=auto;html=1;exitX=1;exitY=0.5;exitDx=0;exitDy=0;" edge="1" parent="1" source="YCPGuai8Zoc8Pll9OkgD-7" target="YCPGuai8Zoc8Pll9OkgD-15">
          <mxGeometry relative="1" as="geometry" />
        </mxCell>
        <mxCell id="YCPGuai8Zoc8Pll9OkgD-35" style="edgeStyle=orthogonalEdgeStyle;rounded=0;orthogonalLoop=1;jettySize=auto;html=1;exitX=1;exitY=0.5;exitDx=0;exitDy=0;entryX=0;entryY=0.5;entryDx=0;entryDy=0;" edge="1" parent="1" source="YCPGuai8Zoc8Pll9OkgD-7" target="YCPGuai8Zoc8Pll9OkgD-19">
          <mxGeometry relative="1" as="geometry">
            <Array as="points">
              <mxPoint x="800" y="225" />
              <mxPoint x="800" y="45" />
            </Array>
          </mxGeometry>
        </mxCell>
        <mxCell id="YCPGuai8Zoc8Pll9OkgD-36" style="edgeStyle=orthogonalEdgeStyle;rounded=0;orthogonalLoop=1;jettySize=auto;html=1;exitX=1;exitY=0.5;exitDx=0;exitDy=0;entryX=0;entryY=0.5;entryDx=0;entryDy=0;" edge="1" parent="1" source="YCPGuai8Zoc8Pll9OkgD-7" target="YCPGuai8Zoc8Pll9OkgD-20">
          <mxGeometry relative="1" as="geometry">
            <Array as="points">
              <mxPoint x="800" y="225" />
              <mxPoint x="800" y="399" />
            </Array>
          </mxGeometry>
        </mxCell>
        <mxCell id="YCPGuai8Zoc8Pll9OkgD-7" value="&lt;font face=&quot;Times New Roman&quot;&gt;Stage 2: \(\phi_{1}^{[2]}\)&lt;/font&gt;" style="rounded=1;whiteSpace=wrap;html=1;strokeWidth=1;" vertex="1" parent="1">
          <mxGeometry x="510" y="210" width="70" height="30" as="geometry" />
        </mxCell>
        <mxCell id="YCPGuai8Zoc8Pll9OkgD-8" value="&lt;font face=&quot;Times New Roman&quot;&gt;Stage 3: \(\phi_{2}^{[3]}\)&lt;/font&gt;" style="rounded=1;whiteSpace=wrap;html=1;strokeWidth=1;" vertex="1" parent="1">
          <mxGeometry x="979" y="210" width="70" height="30" as="geometry" />
        </mxCell>
        <mxCell id="YCPGuai8Zoc8Pll9OkgD-26" style="edgeStyle=orthogonalEdgeStyle;rounded=0;orthogonalLoop=1;jettySize=auto;html=1;entryX=0.5;entryY=0;entryDx=0;entryDy=0;" edge="1" parent="1" source="YCPGuai8Zoc8Pll9OkgD-9" target="YCPGuai8Zoc8Pll9OkgD-24">
          <mxGeometry relative="1" as="geometry" />
        </mxCell>
        <mxCell id="YCPGuai8Zoc8Pll9OkgD-9" value="" style="shape=cube;whiteSpace=wrap;html=1;boundedLbl=1;backgroundOutline=1;darkOpacity=0.05;darkOpacity2=0.1;direction=east;size=10;flipH=1;fillColor=#92d050;fontColor=#ffffff;strokeColor=#000000;strokeWidth=1;shadow=0;fontFamily=Times New Roman;gradientColor=none;" vertex="1" parent="1">
          <mxGeometry x="345" y="350" width="100" height="30" as="geometry" />
        </mxCell>
        <mxCell id="YCPGuai8Zoc8Pll9OkgD-14" style="edgeStyle=orthogonalEdgeStyle;rounded=0;orthogonalLoop=1;jettySize=auto;html=1;exitX=0.5;exitY=1;exitDx=0;exitDy=0;entryX=0.498;entryY=0;entryDx=0;entryDy=0;entryPerimeter=0;" edge="1" parent="1" source="YCPGuai8Zoc8Pll9OkgD-6" target="YCPGuai8Zoc8Pll9OkgD-9">
          <mxGeometry relative="1" as="geometry" />
        </mxCell>
        <mxCell id="YCPGuai8Zoc8Pll9OkgD-18" style="edgeStyle=orthogonalEdgeStyle;rounded=0;orthogonalLoop=1;jettySize=auto;html=1;exitX=0.5;exitY=1;exitDx=0;exitDy=0;" edge="1" parent="1" source="YCPGuai8Zoc8Pll9OkgD-15" target="YCPGuai8Zoc8Pll9OkgD-17">
          <mxGeometry relative="1" as="geometry" />
        </mxCell>
        <mxCell id="YCPGuai8Zoc8Pll9OkgD-15" value="&lt;font face=&quot;Times New Roman&quot;&gt;Feature Refinement Module&lt;/font&gt;&lt;font face=&quot;Times New Roman&quot;&gt;: \(r_{1}^{[2]}\)&lt;/font&gt;" style="rounded=1;whiteSpace=wrap;html=1;strokeWidth=1;" vertex="1" parent="1">
          <mxGeometry x="585" y="280" width="170" height="30" as="geometry" />
        </mxCell>
        <mxCell id="YCPGuai8Zoc8Pll9OkgD-31" style="edgeStyle=orthogonalEdgeStyle;rounded=0;orthogonalLoop=1;jettySize=auto;html=1;entryX=0.5;entryY=0;entryDx=0;entryDy=0;" edge="1" parent="1" source="YCPGuai8Zoc8Pll9OkgD-17" target="YCPGuai8Zoc8Pll9OkgD-29">
          <mxGeometry relative="1" as="geometry" />
        </mxCell>
        <mxCell id="YCPGuai8Zoc8Pll9OkgD-17" value="" style="shape=cube;whiteSpace=wrap;html=1;boundedLbl=1;backgroundOutline=1;darkOpacity=0.05;darkOpacity2=0.1;direction=east;size=10;flipH=1;fillColor=#92d050;fontColor=#ffffff;strokeColor=#000000;strokeWidth=1;shadow=0;fontFamily=Times New Roman;gradientColor=none;" vertex="1" parent="1">
          <mxGeometry x="620" y="350" width="100" height="30" as="geometry" />
        </mxCell>
        <mxCell id="YCPGuai8Zoc8Pll9OkgD-19" value="&lt;font face=&quot;Times New Roman&quot;&gt;Stage 3: \(\phi_{1}^{[3]}\)&lt;/font&gt;" style="rounded=1;whiteSpace=wrap;html=1;strokeWidth=1;" vertex="1" parent="1">
          <mxGeometry x="1099" y="30" width="70" height="30" as="geometry" />
        </mxCell>
        <mxCell id="YCPGuai8Zoc8Pll9OkgD-20" value="&lt;font face=&quot;Times New Roman&quot;&gt;Stage 3: \(\phi_{3}^{[3]}\)&lt;/font&gt;" style="rounded=1;whiteSpace=wrap;html=1;strokeWidth=1;" vertex="1" parent="1">
          <mxGeometry x="860" y="384" width="70" height="30" as="geometry" />
        </mxCell>
        <mxCell id="YCPGuai8Zoc8Pll9OkgD-21" value="&lt;font face=&quot;Times New Roman&quot;&gt;Classifier \(g_{1}^{[3]}\)&lt;/font&gt;" style="rounded=1;whiteSpace=wrap;html=1;strokeWidth=1;" vertex="1" parent="1">
          <mxGeometry x="1239" y="30" width="70" height="30" as="geometry" />
        </mxCell>
        <mxCell id="YCPGuai8Zoc8Pll9OkgD-22" value="&lt;font face=&quot;Times New Roman&quot;&gt;Classifier \(g_{2}^{[3]}\)&lt;/font&gt;" style="rounded=1;whiteSpace=wrap;html=1;strokeWidth=1;" vertex="1" parent="1">
          <mxGeometry x="1099" y="207" width="70" height="30" as="geometry" />
        </mxCell>
        <mxCell id="YCPGuai8Zoc8Pll9OkgD-23" value="&lt;font face=&quot;Times New Roman&quot;&gt;Classifier \(g_{3}^{[3]}\)&lt;/font&gt;" style="rounded=1;whiteSpace=wrap;html=1;strokeWidth=1;" vertex="1" parent="1">
          <mxGeometry x="1000" y="384" width="70" height="30" as="geometry" />
        </mxCell>
        <mxCell id="YCPGuai8Zoc8Pll9OkgD-28" style="edgeStyle=orthogonalEdgeStyle;rounded=0;orthogonalLoop=1;jettySize=auto;html=1;exitX=0.5;exitY=1;exitDx=0;exitDy=0;" edge="1" parent="1" source="YCPGuai8Zoc8Pll9OkgD-24" target="YCPGuai8Zoc8Pll9OkgD-27">
          <mxGeometry relative="1" as="geometry" />
        </mxCell>
        <mxCell id="YCPGuai8Zoc8Pll9OkgD-24" value="&lt;font face=&quot;Times New Roman&quot;&gt;Classifier \(g_{1}^{[1]}\)&lt;/font&gt;" style="rounded=1;whiteSpace=wrap;html=1;strokeWidth=1;" vertex="1" parent="1">
          <mxGeometry x="360" y="480" width="70" height="30" as="geometry" />
        </mxCell>
        <mxCell id="YCPGuai8Zoc8Pll9OkgD-27" value="" style="shape=cube;whiteSpace=wrap;html=1;boundedLbl=1;backgroundOutline=1;darkOpacity=0.05;darkOpacity2=0.1;direction=east;size=10;flipH=1;fillColor=#80dbe0;strokeColor=#000000;strokeWidth=1;shadow=0;fontFamily=Times New Roman;" vertex="1" parent="1">
          <mxGeometry x="345" y="530" width="100" height="30" as="geometry" />
        </mxCell>
        <mxCell id="YCPGuai8Zoc8Pll9OkgD-29" value="&lt;font face=&quot;Times New Roman&quot;&gt;Classifier \(g_{1}^{[2]}\)&lt;/font&gt;" style="rounded=1;whiteSpace=wrap;html=1;strokeWidth=1;" vertex="1" parent="1">
          <mxGeometry x="635" y="480" width="70" height="30" as="geometry" />
        </mxCell>
        <mxCell id="YCPGuai8Zoc8Pll9OkgD-30" value="" style="shape=cube;whiteSpace=wrap;html=1;boundedLbl=1;backgroundOutline=1;darkOpacity=0.05;darkOpacity2=0.1;direction=east;size=10;flipH=1;fillColor=#80dbe0;strokeColor=#000000;strokeWidth=1;shadow=0;fontFamily=Times New Roman;" vertex="1" parent="1">
          <mxGeometry x="620" y="530" width="100" height="30" as="geometry" />
        </mxCell>
        <mxCell id="YCPGuai8Zoc8Pll9OkgD-34" style="edgeStyle=orthogonalEdgeStyle;rounded=0;orthogonalLoop=1;jettySize=auto;html=1;exitX=0.5;exitY=1;exitDx=0;exitDy=0;entryX=0.5;entryY=-0.027;entryDx=0;entryDy=0;entryPerimeter=0;" edge="1" parent="1" source="YCPGuai8Zoc8Pll9OkgD-29" target="YCPGuai8Zoc8Pll9OkgD-30">
          <mxGeometry relative="1" as="geometry" />
        </mxCell>
      </root>
    </mxGraphModel>
  </diagram>
</mxfile>
